<svg xmlns:xodm="http://www.corel.com/coreldraw/odm/2003" xmlns="http://www.w3.org/2000/svg" xmlns:xlink="http://www.w3.org/1999/xlink" version="1.1" id="Слой_1" x="0px" y="0px" viewBox="0 0 32 30" style="enable-background:new 0 0 32 30;" xml:space="preserve">
<style type="text/css">
  .st55, .st66, .st77, .st88 {fill: #dc143c}
	.st0{fill:none;}
	.st1{fill-rule:evenodd;clip-rule:evenodd;fill:url(#SVGID_1_);}
	.st2{fill-rule:evenodd;clip-rule:evenodd;fill:#FFFFFF;}
	.st3{fill-rule:evenodd;clip-rule:evenodd;fill:url(#SVGID_2_);}
	.st4{fill-rule:evenodd;clip-rule:evenodd;fill:#FEFEFE;}
	.st5{fill:#4285F4;}
	.st6{fill:#FF8822;}
	.st7{fill:#33AA53;}
	.st8{fill:#E61B60;}
	.st9{clip-path:url(#SVGID_4_);}
	.st10{fill-rule:evenodd;clip-rule:evenodd;fill:#F3B213;}
	.st11{clip-path:url(#SVGID_6_);}
</style>
<rect id="svgEditorBackground" class="st0" width="32" height="30"/>
<g id="Слой_x0020_1">
	
		<linearGradient id="SVGID_1_" gradientUnits="userSpaceOnUse" x1="-615.3896484" y1="376.3656006" x2="-615.3825684" y2="366.8812866" gradientTransform="matrix(2.9226472 0 0 -2.9226472 1813.0563965 1100.9918213)">
		<stop offset="0" style="stop-color:#FF8822"/>
		<stop offset="0.2" style="stop-color:#FFFF00"/>
		<stop offset="0.501961" style="stop-color:#33AA53"/>
		<stop offset="0.760784" style="stop-color:#FFFF00"/>
		<stop offset="1" style="stop-color:#FF8822"/>
	</linearGradient>
	<circle class="st1" cx="14.5" cy="15" r="14.5"/>
	<circle class="st2" cx="14.5" cy="15" r="13.1006613"/>
	
		<linearGradient id="SVGID_2_" gradientUnits="userSpaceOnUse" x1="-615.364563" y1="375.7694397" x2="-615.4077148" y2="367.3599854" gradientTransform="matrix(2.9226472 0 0 -2.9226472 1813.0563965 1100.9918213)">
		<stop offset="0" style="stop-color:#1DABFD"/>
		<stop offset="0.278431" style="stop-color:#1DABFD"/>
		<stop offset="0.458824" style="stop-color:#1DADFD"/>
		<stop offset="0.490196" style="stop-color:#67D5FF"/>
		<stop offset="0.509804" style="stop-color:#F5E15A"/>
		<stop offset="0.701961" style="stop-color:#F9D900"/>
		<stop offset="1" style="stop-color:#F9D900"/>
	</linearGradient>
	<circle class="st3" cx="14.5" cy="15" r="12.3303671"/>
	<circle class="st4" cx="14.5" cy="15" r="11.2493191"/>
	<path class="st55" d="M5.4805822,17.4841537v-1.1808662c0.0960512,0.007534,0.2448368,0.0112991,0.4482398,0.0112991   c0.2335372,0,0.4162226-0.0565014,0.546175-0.1732693c0.1318355-0.1130009,0.197753-0.3201704,0.197753-0.6158581V9.2218485   h1.297636v6.2094431c0,1.3842697-0.6215091,2.0754642-1.8626447,2.0754642   C5.8308873,17.5067558,5.6218343,17.4992218,5.4805822,17.4841537z"/>
	<path class="st66" d="M9.2567225,15.5028582v-4.3015976c0-0.6610594,0.1713858-1.1714506,0.5122747-1.5330563   c0.3390045-0.3597212,0.8267956-0.542408,1.4614887-0.542408c0.6346922,0,1.1205997,0.1826868,1.4614887,0.542408   c0.337122,0.3616056,0.5066252,0.8719969,0.5066252,1.5330563v4.3015976c0,0.6610613-0.1695032,1.1714506-0.5066252,1.5349398   c-0.340888,0.359724-0.8267956,0.5405254-1.4614887,0.5405254s-1.1224833-0.1808014-1.4614887-0.5405254   C9.4281082,16.6743088,9.2567225,16.1639194,9.2567225,15.5028582z M10.5543585,15.5800772   c0,0.5442915,0.2278862,0.817378,0.67801,0.817378c0.4463558,0,0.6685925-0.2730865,0.6685925-0.817378v-4.4597998   c0-0.5424089-0.2222366-0.8136129-0.6685925-0.8136129c-0.4501238,0-0.67801,0.271204-0.67801,0.8136129V15.5800772z"/>
	<path class="st77" d="M14.5452013,17.4841537V9.2218475h1.9605799c0.6648254,0,1.1507339,0.1544352,1.4596043,0.4651909   c0.3088703,0.3107548,0.4633064,0.7891273,0.4633064,1.4351206v0.2938051c0,0.8437462-0.278738,1.3993368-0.8399792,1.6648912   c0.6478767,0.2504873,0.9699326,0.8380957,0.9699326,1.7684765v0.6742439c0,0.6384592-0.1657352,1.1243677-0.5009747,1.4577208   c-0.3352394,0.3352394-0.824913,0.5028572-1.4690228,0.5028572h-2.0434475H14.5452013z M15.8447218,16.3032875h0.743926   c0.2260036,0,0.3955059-0.0602684,0.5047417-0.1845703c0.1130009-0.1224184,0.1676197-0.333354,0.1676197-0.6271601v-0.7232094   c0-0.3747892-0.065918-0.6365757-0.1921024-0.7853622c-0.1280689-0.1450176-0.3427715-0.2184706-0.6422272-0.2184706h-0.5819578   V16.3032875z M15.8447218,12.5855322h0.5066252c0.2580204,0,0.4538898-0.0678015,0.5819569-0.1996365   c0.1318359-0.1318359,0.1977539-0.3559551,0.1977539-0.6704769v-0.4614239c0-0.2956877-0.0508499-0.5122747-0.1563187-0.6478767   c-0.1035862-0.135602-0.2712059-0.205286-0.5009747-0.205286h-0.6290426V12.5855322z"/>
	<path class="st88" d="M19.6453438,15.5103912v-0.5047417h1.3334198v0.5857258c0,0.5367584,0.2071705,0.806078,0.619627,0.806078   s0.6196251-0.2693195,0.6196251-0.8079615c0-0.2297707-0.0452003-0.4482393-0.1374855-0.6516428   c-0.0922852-0.205286-0.2109375-0.3898563-0.3559551-0.553709c-0.1450176-0.1619692-0.3051052-0.3258219-0.480257-0.4896736   c-0.1770382-0.1619692-0.3578396-0.3333549-0.5442924-0.5122747c-0.1864529-0.1789188-0.3559551-0.3710222-0.5066242-0.5687742   c-0.1487865-0.20152-0.2730865-0.4388237-0.3691387-0.7156773c-0.0960522-0.278738-0.1450176-0.5763092-0.1450176-0.8964796   c0-0.6648264,0.1770363-1.1752176,0.5292225-1.5349407c0.3540726-0.3616047,0.82868-0.5405245,1.4275894-0.5405245   c0.5951424,0,1.0565662,0.1789198,1.3805046,0.5405245c0.3239384,0.3578396,0.4877892,0.8682299,0.4877892,1.5311737v0.2655535   h-1.2298336v-0.3465385c0-0.5405245-0.2165871-0.809845-0.6516438-0.809845c-0.2128201,0-0.3747883,0.065917-0.484024,0.1921024   c-0.1073513,0.1299524-0.1600857,0.337122-0.1600857,0.6233931c0,0.2297707,0.0470848,0.4482403,0.1412525,0.6497602   c0.0941677,0.205286,0.2147026,0.3879728,0.3616047,0.5537081c0.1506691,0.1638517,0.3126392,0.3258219,0.4934406,0.4896736   c0.1826878,0.1638527,0.3634892,0.3352385,0.542408,0.5141582c0.1808033,0.1789188,0.3465385,0.3691387,0.4934425,0.5668926   c0.1487846,0.201519,0.2693195,0.4388237,0.3634872,0.7175598c0.0941696,0.2768545,0.1412525,0.5763083,0.1412525,0.8945971   c0,0.6629429-0.1638527,1.1733341-0.4953232,1.5330563c-0.3295879,0.3578396-0.7966633,0.5367565-1.3993378,0.5367565   c-0.5989094,0-1.0791664-0.1789169-1.4370041-0.5367565c-0.3578396-0.3597221-0.538641-0.8682308-0.538641-1.5311728   L19.6453438,15.5103912z"/>
	<path class="st5" d="M10.2982206,22.8103008v-3.6932716h1.1413174v3.7441216c0,0.3164043,0.1996365,0.4746056,0.5951424,0.4746056   c0.3936224,0,0.5894918-0.1582012,0.5894918-0.4746056v-3.7441216h1.1413164v3.6932716   c0,0.3898563-0.1525517,0.6911926-0.4576569,0.9021301c-0.3069878,0.2109375-0.7382774,0.3164043-1.297636,0.3164043   s-0.9849977-0.1054668-1.2750359-0.3164043C10.4432392,23.5014935,10.2982206,23.2001572,10.2982206,22.8103008   L10.2982206,22.8103008z M14.6280689,23.9666843l1.1563835-4.8496552h1.7590599l1.1544991,4.8496552H17.556694l-0.1996346-0.87953   h-1.3880386l-0.197753,0.87953H14.628067H14.6280689z M16.1178074,22.4279785h1.0904675l-0.546175-2.4238873L16.1178074,22.4279785   z"/>
	<g>
		<defs>
			<path id="SVGID_3_" d="M10.2982206,22.8103008v-3.6932716h1.1413174v3.7441216     c0,0.3164043,0.1996365,0.4746056,0.5951424,0.4746056c0.3936224,0,0.5894918-0.1582012,0.5894918-0.4746056v-3.7441216     h1.1413164v3.6932716c0,0.3898563-0.1525517,0.6911926-0.4576569,0.9021301     c-0.3069878,0.2109375-0.7382774,0.3164043-1.297636,0.3164043s-0.9849977-0.1054668-1.2750359-0.3164043     C10.4432392,23.5014935,10.2982206,23.2001572,10.2982206,22.8103008L10.2982206,22.8103008z"/>
		</defs>
		<clipPath id="SVGID_4_">
			<use xlink:href="#SVGID_3_" style="overflow:visible;"/>
		</clipPath>
		<g class="st9">
			<g id="_2218588552112">
				<rect x="8.4261599" y="21.5616322" class="st10" width="11.1099501" height="2.5274708"/>
			</g>
		</g>
	</g>
	<g>
		<defs>
			<path id="SVGID_5_" d="M14.6280689,23.9666843l1.1563835-4.8496552h1.7590599l1.1544991,4.8496552H17.556694l-0.1996346-0.87953     h-1.3880386l-0.197753,0.87953H14.628067H14.6280689z M16.1178074,22.4279785h1.0904675l-0.546175-2.4238873     L16.1178074,22.4279785z"/>
		</defs>
		<clipPath id="SVGID_6_">
			<use xlink:href="#SVGID_5_" style="overflow:visible;"/>
		</clipPath>
		<g class="st11">
			<g id="_2218588552112_1_">
				<rect x="8.4261599" y="21.5616322" class="st10" width="11.1099501" height="2.5274708"/>
			</g>
		</g>
	</g>
</g>
</svg>